<svg xmlns="http://www.w3.org/2000/svg" xmlns:xlink="http://www.w3.org/1999/xlink" width="1024" height="1024" viewBox="0 0 1024 1024" fill="none">
<rect  x="100" y="98" width="824" height="824" rx="100"    fill="#FFFFFF" >
</rect>
<path d="M780.807 655.257L780.807 368.742C780.807 361.35 776.86 354.521 770.457 350.825L522.35 207.575C515.948 203.879 508.06 203.879 501.658 207.575L253.543 350.825C247.14 354.521 243.2 361.35 243.2 368.742L243.2 655.257C243.2 662.65 247.14 669.478 253.543 673.175L501.658 816.425C508.06 820.12 515.948 820.12 522.35 816.425L770.457 673.175C776.86 669.478 780.807 662.65 780.807 655.257ZM709.115 622.827L709.115 401.172C709.115 399.323 708.128 397.611 706.527 396.687L514.588 285.867C512.987 284.943 511.013 284.943 509.413 285.867L317.465 396.687C315.865 397.611 314.878 399.323 314.878 401.172L314.878 622.827C314.878 624.676 315.865 626.381 317.465 627.305L509.413 738.132C511.013 739.056 512.987 739.056 514.588 738.132L706.527 627.305C708.128 626.381 709.115 624.676 709.115 622.827ZM437.188 411.732C438.331 411.732 439.474 411.759 440.615 411.815C441.757 411.871 442.905 411.951 444.043 412.062C445.18 412.174 446.302 412.322 447.433 412.49C448.563 412.658 449.694 412.86 450.815 413.082C451.936 413.305 453.052 413.547 454.16 413.825C455.269 414.103 456.367 414.416 457.46 414.747C458.554 415.079 459.639 415.435 460.715 415.82C461.791 416.205 462.862 416.613 463.918 417.05C464.974 417.487 466.012 417.948 467.045 418.437C468.078 418.926 469.105 419.444 470.113 419.982C471.121 420.521 472.11 421.082 473.09 421.67C474.07 422.258 475.035 422.872 475.985 423.507C476.936 424.142 477.872 424.792 478.79 425.472C479.708 426.154 480.607 426.862 481.49 427.587C482.373 428.312 483.246 429.062 484.093 429.83C484.94 430.598 485.767 431.385 486.575 432.192C487.383 433.001 488.162 433.828 488.93 434.675C489.698 435.522 490.448 436.387 491.173 437.27C491.897 438.153 492.607 439.052 493.288 439.97C493.969 440.888 494.618 441.824 495.253 442.775C495.888 443.725 496.51 444.69 497.098 445.67C497.685 446.65 498.239 447.646 498.778 448.655C499.316 449.663 499.834 450.682 500.323 451.715C500.812 452.748 501.273 453.794 501.71 454.85C502.147 455.906 502.555 456.969 502.94 458.045C503.325 459.121 503.681 460.213 504.013 461.307C504.344 462.401 504.657 463.498 504.935 464.607C505.213 465.716 505.455 466.824 505.678 467.945C505.9 469.066 506.102 470.204 506.27 471.335C506.438 472.465 506.586 473.587 506.698 474.725C506.809 475.862 506.888 477.011 506.945 478.152C507.001 479.294 507.028 480.429 507.028 481.572L507.028 543.657C507.028 544.8 507.001 545.936 506.945 547.077C506.888 548.219 506.809 549.367 506.698 550.505C506.586 551.642 506.438 552.764 506.27 553.895C506.102 555.025 505.9 556.163 505.678 557.285C505.455 558.406 505.213 559.514 504.935 560.622C504.657 561.731 504.344 562.829 504.013 563.922C503.681 565.016 503.325 566.109 502.94 567.185C502.555 568.261 502.147 569.324 501.71 570.38C501.273 571.436 500.812 572.481 500.323 573.515C499.834 574.548 499.316 575.567 498.778 576.575C498.239 577.583 497.685 578.58 497.098 579.56C496.51 580.54 495.888 581.504 495.253 582.455C494.618 583.405 493.968 584.342 493.288 585.26C492.606 586.178 491.897 587.076 491.173 587.96C490.448 588.843 489.698 589.708 488.93 590.555C488.162 591.402 487.383 592.229 486.575 593.037C485.767 593.845 484.94 594.632 484.093 595.4C483.246 596.167 482.373 596.917 481.49 597.642C480.607 598.367 479.708 599.076 478.79 599.757C477.872 600.439 476.936 601.088 475.985 601.722C475.035 602.358 474.07 602.972 473.09 603.56C472.11 604.147 471.121 604.708 470.113 605.247C469.105 605.786 468.078 606.304 467.045 606.792C466.012 607.281 464.974 607.742 463.918 608.18C462.862 608.617 461.791 609.025 460.715 609.41C459.639 609.795 458.554 610.15 457.46 610.482C456.367 610.814 455.269 611.127 454.16 611.405C453.052 611.683 451.936 611.924 450.815 612.147C449.694 612.37 448.563 612.572 447.433 612.74C446.302 612.908 445.18 613.04 444.043 613.152C442.905 613.264 441.757 613.358 440.615 613.415C439.474 613.471 438.331 613.497 437.188 613.497L383.908 613.497C378.114 613.497 375.217 613.492 373.003 612.365C372.519 612.118 372.055 611.837 371.615 611.517C371.176 611.199 370.769 610.844 370.385 610.46C370.001 610.076 369.646 609.669 369.328 609.23C369.008 608.79 368.726 608.326 368.48 607.842C367.352 605.628 367.355 602.731 367.355 596.937L367.355 428.292C367.355 422.498 367.352 419.594 368.48 417.38C368.726 416.896 369.008 416.439 369.328 416C369.646 415.56 370.001 415.146 370.385 414.762C370.769 414.378 371.176 414.031 371.615 413.712C372.055 413.393 372.519 413.111 373.003 412.865C375.217 411.737 378.114 411.732 383.908 411.732L437.188 411.732ZM651.395 412.865C649.181 411.737 646.284 411.732 640.49 411.732L587.21 411.732C586.067 411.732 584.924 411.759 583.783 411.815C582.641 411.871 581.5 411.951 580.363 412.062C579.225 412.174 578.096 412.322 576.965 412.49C575.835 412.658 574.704 412.86 573.583 413.082C572.462 413.305 571.346 413.547 570.238 413.825C569.129 414.103 568.031 414.416 566.938 414.747C565.844 415.079 564.759 415.435 563.682 415.82C562.607 416.205 561.544 416.613 560.488 417.05C559.432 417.487 558.386 417.948 557.353 418.437C556.319 418.926 555.293 419.444 554.285 419.982C553.277 420.521 552.288 421.082 551.307 421.67C550.327 422.258 549.363 422.872 548.413 423.507C547.462 424.142 546.526 424.792 545.608 425.472C544.689 426.154 543.791 426.862 542.908 427.587C542.025 428.312 541.16 429.062 540.312 429.83C539.466 430.598 538.638 431.385 537.83 432.192C537.022 433.001 536.235 433.828 535.468 434.675C534.7 435.522 533.95 436.387 533.225 437.27C532.5 438.153 531.791 439.052 531.11 439.97C530.429 440.888 529.78 441.824 529.145 442.775C528.51 443.725 527.895 444.69 527.308 445.67C526.72 446.65 526.159 447.646 525.62 448.655C525.081 449.663 524.563 450.682 524.075 451.715C523.586 452.748 523.125 453.794 522.688 454.85C522.25 455.906 521.842 456.969 521.458 458.045C521.073 459.121 520.717 460.213 520.385 461.307C520.053 462.401 519.74 463.498 519.463 464.607C519.185 465.716 518.943 466.824 518.72 467.945C518.497 469.066 518.295 470.204 518.128 471.335C517.959 472.465 517.827 473.587 517.715 474.725C517.603 475.862 517.509 477.011 517.453 478.152C517.397 479.294 517.37 480.429 517.37 481.572L517.37 543.657C517.37 544.8 517.397 545.936 517.453 547.077C517.509 548.219 517.603 549.367 517.715 550.505C517.827 551.642 517.959 552.764 518.128 553.895C518.295 555.025 518.497 556.163 518.72 557.285C518.943 558.406 519.185 559.514 519.463 560.622C519.74 561.731 520.053 562.829 520.385 563.922C520.717 565.016 521.072 566.109 521.458 567.185C521.842 568.261 522.25 569.324 522.688 570.38C523.125 571.436 523.586 572.481 524.075 573.515C524.563 574.548 525.081 575.567 525.62 576.575C526.159 577.583 526.72 578.58 527.308 579.56C527.895 580.54 528.51 581.504 529.145 582.455C529.78 583.405 530.429 584.342 531.11 585.26C531.792 586.178 532.5 587.076 533.225 587.96C533.95 588.843 534.7 589.708 535.468 590.555C536.235 591.402 537.022 592.229 537.83 593.037C538.638 593.845 539.466 594.632 540.312 595.4C541.16 596.167 542.025 596.917 542.908 597.642C543.791 598.367 544.689 599.076 545.608 599.757C546.526 600.439 547.462 601.088 548.413 601.722C549.363 602.358 550.327 602.972 551.307 603.56C552.288 604.147 553.277 604.708 554.285 605.247C555.293 605.786 556.319 606.304 557.353 606.792C558.386 607.281 559.432 607.742 560.488 608.18C561.544 608.617 562.607 609.025 563.682 609.41C564.759 609.795 565.844 610.15 566.938 610.482C568.031 610.814 569.128 611.127 570.238 611.405C571.346 611.683 572.462 611.924 573.583 612.147C574.704 612.37 575.835 612.572 576.965 612.74C578.096 612.908 579.225 613.04 580.363 613.152C581.5 613.264 582.641 613.358 583.783 613.415C584.924 613.471 586.067 613.497 587.21 613.497L640.49 613.497C646.284 613.497 649.181 613.492 651.395 612.365C651.879 612.118 652.343 611.837 652.782 611.517C653.222 611.199 653.629 610.844 654.012 610.46C654.397 610.076 654.751 609.669 655.07 609.23C655.389 608.79 655.671 608.326 655.917 607.842C657.045 605.628 657.042 602.731 657.042 596.937L657.042 428.292C657.042 422.498 657.045 419.594 655.917 417.38C655.671 416.896 655.389 416.439 655.07 416C654.751 415.56 654.397 415.146 654.012 414.762C653.629 414.378 653.222 414.031 652.782 413.712C652.343 413.393 651.879 413.111 651.395 412.865Z" fill-rule="evenodd"  fill="url(#linear_fill_13_7)" >
</path>
<defs>
<linearGradient id="linear_fill_13_7" x1="243.2001953125" y1="766.0601806640625" x2="780.7999267578125" y2="176.34107971191406" gradientUnits="userSpaceOnUse">
<stop offset="0" stop-color="#56009C"  />
<stop offset="0.3683" stop-color="#9100EC"  />
<stop offset="0.6569" stop-color="#B457FF"  />
<stop offset="1" stop-color="#E087DD"  />
</linearGradient>
</defs>
</svg>
